<svg version="1.1" id="Ebene_1" xmlns="http://www.w3.org/2000/svg" xmlns:xlink="http://www.w3.org/1999/xlink" x="0px" y="0px"
	 viewBox="0 0 888.1 1024" style="enable-background:new 0 0 888.1 1024;" xml:space="preserve">
<style type="text/css">
	.st0{fill:#3E4B9A;}
</style>
<polygon class="st0" points="0,256.4 444.1,0 888.1,256.4 888.1,769.1 444.1,1025.5 0,769.1 "/>
<g transform="translate(0.000000,1024.000000) scale(0.100000,-0.100000)">
	<path d="M4259.7,9353.1c-127.8-253.8-167.4-351-167.4-405c0-39.6,19.8-225,45-414c25.2-187.2,61.2-471.6,81-630
		c21.6-158.4,54-385.2,72-504c19.8-118.8,43.2-291.6,54-385.2c21.6-189,68.4-397.8,90-397.8c16.2,0,79.2,185.4,97.2,279
		c5.4,30.6,27,187.2,45,351c55.8,464.4,124.2,1002.6,174.6,1386l48.6,351l-176.4,342c-97.2,189-180,347.4-187.2,352.8
		C4430.8,9684.3,4349.7,9538.5,4259.7,9353.1z"/>
	<path d="M3210.3,8377.4c0-577.8,7.2-966.6,18-1006.2c16.2-61.2,306-351,932.4-941.4l77.4-73.8l-10.8,99c-5.4,54-34.2,280.8-63,504
		c-28.8,223.2-95.4,754.2-145.8,1179c-63,514.8-102.6,784.8-118.8,802.8c-14.4,18-133.2,86.4-262.8,153
		c-131.4,66.6-277.2,144-324,172.8c-46.8,27-90,50.4-93.6,50.4C3213.9,9317.1,3210.3,8894.1,3210.3,8377.4z"/>
	<path d="M5478.4,9225.3c-84.6-50.4-234-131.4-333-181.8c-99-50.4-183.6-93.6-187.2-97.2c-3.6-3.6-25.2-174.6-48.6-379.8
		c-21.6-205.2-57.6-495-77.4-644.4c-19.8-147.6-52.2-423-73.8-612c-19.8-187.2-54-469.8-73.8-628.2c-19.8-156.6-32.4-288-28.8-291.6
		c1.8-3.6,185.4,167.4,406.8,381.6c221.4,212.4,430.2,408.6,464.4,433.8c34.2,27,77.4,77.4,97.2,115.2
		c32.4,64.8,34.2,115.2,34.2,1033.2c0,529.2-5.4,963-12.6,961.2C5636.8,9315.3,5563,9273.9,5478.4,9225.3z"/>
	<path d="M2605.5,7679c-77.4-68.4-149.4-135-160.2-147.6c-9-12.6-57.6-68.4-106.2-122.4c-48.6-54-136.8-171-196.2-261
		c-300.6-455.4-432-905.4-432-1485c0-423,55.8-721.8,198-1060.2c237.6-568.8,547.2-954,1031.4-1279.8
		c113.4-77.4,511.2-288,541.8-288c9,0,16.2,66.6,16.2,149.4c0,84.6,12.6,192.6,28.8,244.8c14.4,52.2,25.2,97.2,21.6,97.2
		c-502.2,239.4-867.6,588.6-1103.4,1056.6c-212.4,419.4-289.8,828-244.8,1278c52.2,509.4,226.8,927,509.4,1216.8l108,111.6
		l-39.6,113.4c-39.6,117-52.2,331.2-27,448.2c7.2,30.6,9,54,3.6,54C2751.3,7805,2682.9,7749.2,2605.5,7679z"/>
	<path d="M6113.8,7779.8c39.6-102.6,1.8-455.4-57.6-549c-12.6-19.8,16.2-61.2,111.6-165.6c383.4-408.6,574.2-1074.6,491.4-1701
		c-72-550.8-284.4-981-678.6-1378.8c-196.2-196.2-381.6-333-561.6-410.4c-75.6-34.2-99-52.2-90-72c39.6-95.4,61.2-221.4,55.8-329.4
		l-7.2-124.2l50.4,10.8c181.8,36,610.2,302.4,837,518.4c185.4,178.2,538.2,642.6,572.4,756c7.2,23.4,48.6,109.8,91.8,194.4
		c41.4,84.6,93.6,214.2,113.4,288c19.8,73.8,45,163.8,55.8,198c37.8,127.8,72,410.4,72,612c-1.8,743.4-261,1404-748.8,1895.4
		C6243.4,7702.4,6097.6,7824.8,6113.8,7779.8z"/>
	<path d="M2902.5,6539.6c-243-381.6-313.2-991.8-167.4-1456.2c131.4-415.8,432-804.6,765-986.4l97.2-52.2l19.8,126
		c12.6,68.4,39.6,158.4,59.4,199.8c30.6,63,32.4,79.2,12.6,90c-198,111.6-421.2,367.2-525.6,603c-163.8,369-149.4,914.4,32.4,1245.6
		c59.4,109.8,66.6,136.8,46.8,154.8c-75.6,66.6-243,207-250.2,207C2988.9,6671,2947.5,6611.6,2902.5,6539.6z"/>
	<path d="M5757.4,6572c-59.4-55.8-122.4-104.4-138.6-109.8c-25.2-7.2-19.8-27,41.4-140.4c97.2-181.8,138.6-313.2,162-513
		c32.4-275.4-28.8-590.4-165.6-847.8c-79.2-147.6-262.8-360-392.4-451.8l-106.2-73.8l45-97.2c23.4-54,48.6-142.2,54-196.2
		c5.4-54,18-99,27-99c41.4,0,284.4,176.4,381.6,277.2c214.2,223.2,415.8,577.8,500.4,887.4c57.6,205.2,55.8,669.6,0,878.4
		c-45,165.6-176.4,441-250.2,525.6l-50.4,57.6L5757.4,6572z"/>
	<path d="M4263.3,5875.4c-12.6-39.6-135-1056.6-135-1125c0-1.8,138.6-5.4,307.8-5.4h309.6l-10.8,104.4
		c-14.4,160.2-102.6,874.8-117,961.2l-14.4,77.4l-165.6,5.4C4315.5,5897,4270.5,5891.6,4263.3,5875.4z"/>
	<path d="M4085.1,4399.4c-25.2-160.2-23.4-228.6,1.8-237.6c41.4-16.2,703.8-12.6,714.6,3.6c3.6,7.2,0,75.6-10.8,153L4771,4457
		l-338.4,0h-338.4L4085.1,4399.4z"/>
	<path d="M4011.3,3772.9c-5.4-54-14.4-120.6-18-147.6l-7.2-50.4l437.4,0c239.4,0,441,3.6,446.4,9c7.2,9-10.8,165.6-30.6,252
		c-7.2,34.2-21.6,36-412.2,36l-405,1.8L4011.3,3772.9z"/>
	<path d="M3959.1,3193.3c-5.4-52.2-10.8-122.4-10.8-153l0-59.4h496.8l498.6,0l-12.6,113.4c-7.2,61.2-18,129.6-23.4,153l-9,39.6
		l-464.4,0h-462.6L3959.1,3193.3z"/>
	<path d="M3917.7,2446.3c5.4-205.2,10.8-241.2,52.2-320.4c54-102.6,162-214.2,235.8-241.2c37.8-14.4,48.6-30.6,48.6-72
		c0-57.6,135-1078.2,158.4-1207.8c9-46.8,21.6-70.2,27-54c37.8,97.2,135,772.2,167.4,1162.8l10.8,145.8l91.8,61.2
		c57.6,37.8,122.4,104.4,169.2,174.6l77.4,113.4v234v232.2l-523.8,0l-522,0L3917.7,2446.3z"/>
</g>
</svg>
